<svg version="1.2" xmlns="http://www.w3.org/2000/svg" viewBox="0 0 164 26" width="164" height="26">
	<title>logo-landing-svg</title>
	<style>
		.s0 { fill: #ffffff } 
		.s1 { fill: #00a3ff } 
	</style>
	<path id="My Portfolio" class="s0" aria-label="My Portfolio"  d="m45.6 19h-3v-10l-3.5 6.2h-1.8l-3.5-6.2v10h-2.9v-14.9h3.5l3.8 7.1 3.9-7.1h3.5zm1.3 4l0.6-2.5q0.9 0.4 1.7 0.4 0.6 0 1.1-0.4 0.4-0.4 0.9-1.6l0.3-0.6-4.1-10.5h2.9l2.7 7.2 2.7-7.2h2.8l-4.8 12q-0.6 1.5-1.2 2.2-0.5 0.7-1.3 1-0.7 0.3-1.8 0.3-1.3 0-2.5-0.3zm29.7-13.8q0 2.6-1.3 3.9-1.3 1.3-4.1 1.3h-2.5v4.6h-3v-14.8h5.6q2.5 0 3.9 1.2 1.4 1.1 1.4 3.8zm-3.2 0q0-1.3-0.7-1.8-0.6-0.6-2.5-0.6h-1.5v5h1.3q1.6 0 2.3-0.2 0.6-0.3 0.9-0.8 0.2-0.6 0.2-1.6zm15.8 4.2q0 2.8-1.3 4.4-1.3 1.6-4.1 1.6-5.4 0-5.4-6 0-2.8 1.3-4.4 1.3-1.6 4.1-1.6 2.8 0 4.1 1.6 1.3 1.6 1.3 4.4zm-2.9 0q0-1.8-0.6-2.7-0.5-0.8-1.9-0.8-1.3 0-2 0.8-0.6 0.9-0.6 2.7 0 1.8 0.6 2.7 0.6 0.8 2 0.8 1.3 0 1.9-0.8 0.6-0.8 0.6-2.7zm12.8-5.6l-0.6 2.7q-0.4-0.2-1.1-0.2-0.8 0-1.5 0.3-0.7 0.4-1.4 1.1v7.3h-2.8v-11.2h2.8v1.6q0.7-0.8 1.5-1.3 0.9-0.5 1.9-0.5 0.8 0 1.2 0.2zm7.4 9l0.5 2.2q-1.1 0.4-2.4 0.4-1.9 0-2.8-0.9-0.8-0.9-0.8-2.9v-5.6h-1.5v-2.2h1.5v-3.2h2.7v3.2h2.7v2.2h-2.7v5.3q0 1 0.4 1.4 0.3 0.4 0.9 0.4 0.8 0 1.5-0.3zm8.6-13.8l-0.6 2.4q-0.7-0.3-1.5-0.3-0.8 0-1.1 0.4-0.3 0.3-0.3 1.2v1.1h2.3v2.2h-2.3v9h-2.8v-9h-1.4v-2.2h1.4v-1.1q0-2.1 1.1-3.1 1-0.9 3.1-0.9 1 0 2.1 0.3zm10.8 10.4q0 2.8-1.3 4.4-1.3 1.6-4.1 1.6-5.4 0-5.4-6 0-2.8 1.3-4.4 1.3-1.6 4.1-1.6 2.8 0 4.1 1.6 1.3 1.6 1.3 4.4zm-2.9 0q0-1.8-0.5-2.7-0.6-0.8-2-0.8-1.3 0-1.9 0.8-0.6 0.9-0.6 2.7 0 1.8 0.5 2.7 0.7 0.8 2 0.8 1.4 0 1.9-0.8 0.6-0.8 0.6-2.7zm8.2 5.6h-2.7v-16h2.7zm6.1-14.3q0 0.8-0.4 1.1-0.4 0.3-1.2 0.3-0.9 0-1.2-0.4-0.3-0.3-0.3-1 0-0.7 0.3-1.1 0.4-0.3 1.2-0.3 0.9 0 1.2 0.3 0.4 0.3 0.4 1.1zm-0.2 14.3h-2.8v-11.2h2.8zm13.4-5.6q0 2.8-1.3 4.4-1.3 1.5-4.1 1.5-5.4 0-5.4-5.9 0-2.9 1.3-4.4 1.3-1.6 4.1-1.6 2.8 0 4.1 1.6 1.3 1.5 1.3 4.4zm-2.9 0q0-1.9-0.6-2.7-0.5-0.9-1.9-0.9-1.4 0-2 0.9-0.6 0.9-0.6 2.7 0 1.8 0.6 2.6 0.6 0.9 2 0.9 1.3 0 1.9-0.9 0.6-0.8 0.6-2.6z"/>
	<path id="Layer" class="s1" d="m23.2 1.3q0 0 0 0l-17.1 17.5c0 0-1.3 1.6-0.3 2.8l-4.6-4.8c0 0-3.5-4.8 1.5-9.7 3.8-3.7 5.9-5.8 6.7-6.7q0.1-0.2 0.4-0.3 0.2-0.1 0.5-0.1h12.4q0.3 0 0.5 0.2 0.2 0.3 0.2 0.6 0 0.3-0.2 0.5z"/>
	<path id="Layer" class="s0" d="m24 25.1q0 0.2-0.1 0.4-0.1 0.2-0.2 0.4-0.2 0.1-0.4 0.1-0.1 0-0.1 0h-12.6q-0.2 0-0.4-0.1-0.2-0.1-0.3-0.2l-3.1-3.3c0 0-0.8-0.9 0.5-2.6l5.3-5.4q0.2-0.1 0.3-0.2 0.1-0.1 0.3-0.1 0.1 0 0.3 0.1 0.1 0.1 0.2 0.2l10.1 10.3q0.1 0.2 0.2 0.4z"/>
</svg>